<svg width="1829" height="1044" viewBox="0 0 1829 1044" fill="none" xmlns="http://www.w3.org/2000/svg">
<rect width="1828" height="1043.22" transform="translate(0.609375 0.390625)" fill="#424242"/>
<rect width="1828.21" height="1043.04" transform="translate(1828.81 1043.43) rotate(-180)" fill="white"/>
<path d="M926.822 358.422L926.822 663.891L854.774 663.891L854.774 538.754L729.216 538.754L729.216 663.891L657.168 663.891L657.168 358.422L729.216 358.422L729.216 475.132L854.774 475.132L854.774 358.422L926.822 358.422ZM1036.56 358.422L1036.56 414.039L967.043 414.039L967.043 358.422L1036.56 358.422ZM1036.99 437.212L1036.99 663.891L967.043 663.891L967.043 437.212L1036.99 437.212ZM1172.31 596.898L1218.23 437.212L1289.86 437.212L1208.97 663.891L1131.86 663.891L1049.28 437.212L1124.28 437.212L1172.31 596.898ZM1517.7 592.685C1508.15 617.965 1492.98 637.066 1472.2 649.987C1451.69 662.907 1429.22 669.368 1404.78 669.368C1367.43 669.368 1337.37 658.694 1314.62 637.346C1291.87 615.718 1280.49 586.365 1280.49 549.287C1280.49 513.895 1292.15 485.244 1315.46 463.335C1339.06 441.425 1367.85 430.471 1401.84 430.471C1439.19 430.471 1468.55 443.392 1489.89 469.234C1511.24 494.795 1520.79 527.799 1518.55 568.247L1350.43 568.247C1351.56 583.416 1357.03 595.072 1366.86 603.218C1376.98 611.364 1388.91 615.437 1402.68 615.437C1427.68 615.437 1444.67 607.853 1453.66 592.685L1517.7 592.685ZM1351.27 526.114L1449.45 526.114C1449.17 512.631 1444.53 502.238 1435.54 494.935C1426.83 487.351 1415.6 483.559 1401.84 483.559C1388.63 483.559 1377.26 487.211 1367.71 494.514C1358.44 501.536 1352.96 512.069 1351.27 526.114Z" fill="#202020"/>
<path d="M1531.8 663.891L1531.8 588.893L1610.17 588.893L1610.17 663.891L1531.8 663.891Z" fill="#F1B729"/>
<rect x="264.762" y="370.486" width="200.321" height="66.7737" fill="#222222"/>
<rect x="264.762" y="596.773" width="200.321" height="66.7737" fill="#222222"/>
<rect x="198" y="485.484" width="333.868" height="66.7737" fill="#222222"/>
<path d="M414.562 339.766L461.831 292.498" stroke="#F1B729" stroke-width="28.3608"/>
<path d="M268.023 292.498L315.292 339.766" stroke="#F1B729" stroke-width="28.3608"/>
</svg>
