<svg width="2298" height="2298" viewBox="0 0 2298 2298" fill="none" xmlns="http://www.w3.org/2000/svg">
<g clip-path="url(#clip0_488_154862)">
<rect width="2297.05" height="2297.05" rx="1148.52" fill="white"/>
<path d="M823.845 896.588V1378.64H710.147V1181.17H512.007V1378.64H398.309V896.588H512.007V1080.77H710.147V896.588H823.845ZM997.025 896.588V984.355H887.317V896.588H997.025ZM997.69 1020.92V1378.64H887.317V1020.92H997.69ZM1211.24 1272.92L1283.72 1020.92H1396.75L1269.09 1378.64H1147.41L1017.09 1020.92H1135.44L1211.24 1272.92ZM1756.3 1266.27C1741.23 1306.17 1717.29 1336.31 1684.49 1356.7C1652.13 1377.09 1616.67 1387.28 1578.11 1387.28C1519.15 1387.28 1471.72 1370.44 1435.82 1336.75C1399.91 1302.62 1381.96 1256.3 1381.96 1197.79C1381.96 1141.94 1400.36 1096.72 1437.15 1062.15C1474.38 1027.57 1519.82 1010.29 1573.45 1010.29C1632.41 1010.29 1678.73 1030.68 1712.42 1071.46C1746.1 1111.79 1761.18 1163.88 1757.63 1227.71H1492.33C1494.11 1251.64 1502.75 1270.04 1518.27 1282.9C1534.22 1295.75 1553.06 1302.18 1574.78 1302.18C1614.23 1302.18 1641.05 1290.21 1655.23 1266.27H1756.3ZM1493.66 1161.22H1648.59C1648.14 1139.94 1640.83 1123.54 1626.64 1112.02C1612.9 1100.05 1595.17 1094.06 1573.45 1094.06C1552.62 1094.06 1534.67 1099.83 1519.59 1111.35C1504.97 1122.43 1496.32 1139.06 1493.66 1161.22Z" fill="#202020"/>
<path d="M1778.55 1378.64V1260.29H1902.22V1378.64H1778.55Z" fill="#F1B729"/>
</g>
<defs>
<clipPath id="clip0_488_154862">
<rect width="2297.05" height="2297.05" fill="white"/>
</clipPath>
</defs>
</svg>
